<?xml version="1.0" standalone="no"?>
<!DOCTYPE svg PUBLIC "-//W3C//DTD SVG 20010904//EN"
 "http://www.w3.org/TR/2001/REC-SVG-20010904/DTD/svg10.dtd">
<svg version="1.0" xmlns="http://www.w3.org/2000/svg"
 width="256.000000pt" height="256.000000pt" viewBox="0 0 256.000000 256.000000"
 preserveAspectRatio="xMidYMid meet">
<metadata>
Created by potrace 1.16, written by Peter Selinger 2001-2019
</metadata>
<g transform="translate(0.000000,256.000000) scale(0.100000,-0.100000)"
fill="#000000" stroke="none">
<path d="M700 2549 c-115 -3 -222 -12 -245 -19 -148 -46 -303 -176 -369 -310
-58 -120 -66 -175 -66 -506 l0 -292 24 -6 c35 -9 110 -87 138 -143 18 -39 23
-64 23 -130 l0 -83 48 0 c26 0 62 -6 81 -14 45 -19 93 -80 106 -138 11 -43 15
-48 39 -48 15 0 43 -8 63 -18 l36 -19 7 71 c9 98 64 662 70 712 5 51 22 97 34
90 4 -3 11 -34 15 -68 3 -35 13 -85 21 -113 11 -37 14 -41 10 -15 -4 31 -1 28
28 -28 18 -35 36 -60 39 -56 4 3 -4 28 -18 55 -30 60 -26 63 11 7 41 -64 76
-98 101 -98 12 0 56 25 98 56 69 50 76 59 76 89 0 19 4 45 10 59 l10 26 -36
-15 c-20 -8 -47 -15 -60 -15 -13 0 -23 -4 -21 -8 1 -4 -14 -26 -33 -49 l-35
-41 -52 58 c-53 58 -101 130 -88 130 4 0 2 7 -5 15 -7 8 -16 12 -21 10 -4 -3
-6 6 -3 20 2 14 0 34 -6 43 -8 14 -9 13 -7 -8 1 -19 -2 -24 -17 -22 -10 2 -15
-1 -11 -7 4 -7 0 -8 -11 -4 -11 4 -13 8 -6 11 7 2 10 8 6 13 -6 11 8 12 22 1
5 -4 6 -3 2 3 -13 15 -9 21 19 34 23 11 29 10 39 -3 6 -9 15 -16 19 -16 4 0 1
7 -6 17 -10 12 -11 17 -2 20 7 2 9 11 7 18 -13 32 133 188 187 200 16 4 27 11
23 16 -3 5 -2 9 3 10 13 1 32 6 118 29 114 32 135 35 135 19 0 -8 5 -6 13 6
12 16 24 17 101 13 50 -4 93 -11 103 -19 9 -8 18 -13 19 -12 9 6 64 -10 64
-18 0 -5 8 -9 18 -9 23 0 93 -69 133 -131 17 -27 35 -49 41 -49 5 0 7 -4 4 -9
-3 -5 3 -11 14 -14 15 -4 28 7 56 50 34 52 36 59 39 153 l3 98 -29 4 c-16 3
-38 -2 -49 -9 -23 -16 -25 -11 -8 16 9 14 8 26 -2 51 -18 43 -36 60 -68 61
-24 1 -23 2 10 13 43 13 99 63 91 81 -3 10 9 16 41 20 25 4 46 11 46 15 0 5
18 0 40 -11 21 -10 43 -19 47 -19 4 0 16 -18 26 -39 12 -27 27 -41 50 -49 31
-9 31 -10 6 -11 -32 -1 -62 -42 -62 -84 0 -16 -5 -26 -11 -24 -7 3 -21 -3 -32
-12 -22 -17 -38 -61 -23 -61 5 0 9 -4 9 -9 0 -5 -10 -7 -22 -4 -20 4 -19 2 5
-12 15 -8 27 -21 27 -27 0 -7 -5 -6 -15 2 -8 7 -25 10 -39 6 -18 -4 -26 -1
-29 11 -3 13 -5 11 -6 -6 -1 -20 2 -22 24 -17 31 8 33 -1 3 -14 -23 -9 -23 -9
2 -10 14 -1 34 -5 45 -10 14 -7 9 -8 -18 -4 l-37 6 14 -28 c11 -21 21 -126 36
-394 11 -201 23 -394 26 -430 3 -36 2 -60 -3 -54 -16 21 -58 44 -80 44 -14 0
-23 6 -23 15 0 8 -7 15 -16 15 -9 0 -13 -5 -10 -12 3 -7 9 -21 12 -31 6 -17
15 -21 46 -18 10 1 23 -9 29 -23 7 -14 17 -22 23 -19 15 9 -16 -30 -31 -40
-15 -9 -19 -272 -4 -281 4 -3 23 13 41 35 35 44 97 78 141 79 24 0 27 5 34 46
4 32 17 57 42 85 49 54 81 69 148 69 33 0 54 4 50 9 -12 20 -6 132 9 179 21
63 80 131 141 163 l46 24 -3 315 c-4 291 -6 320 -26 380 -71 213 -243 368
-452 408 -66 13 -1070 21 -1370 11z m198 -1088 c25 -21 28 -31 10 -31 -14 0
-48 30 -48 42 0 13 16 9 38 -11z"/>
<path d="M1232 1968 c-13 -6 -27 -27 -33 -49 -10 -33 -9 -44 10 -83 11 -25 21
-51 21 -56 0 -22 -31 -70 -45 -70 -8 0 -15 -5 -15 -11 0 -13 73 -2 78 12 2 5
10 9 18 9 8 0 14 6 14 14 0 8 11 27 24 43 26 31 24 46 -9 57 -20 7 -75 77 -75
96 0 6 7 10 15 10 8 0 14 3 14 8 -4 21 3 23 22 6 21 -19 21 -19 18 1 -5 23
-25 28 -57 13z m16 -130 c9 -10 10 -18 4 -18 -18 0 -42 30 -42 53 1 22 1 22
12 2 6 -11 18 -28 26 -37z"/>
<path d="M1285 1910 c-3 -5 -1 -10 4 -10 6 0 11 5 11 10 0 6 -2 10 -4 10 -3 0
-8 -4 -11 -10z"/>
<path d="M1835 1862 c-11 -20 -43 -69 -72 -109 -43 -58 -60 -73 -86 -77 -44
-7 -146 -19 -180 -21 -44 -3 -70 -49 -47 -85 8 -12 11 -12 27 2 18 15 237 88
266 88 21 0 50 50 87 149 33 91 35 112 5 53z"/>
<path d="M1275 1881 c-6 -11 13 -26 22 -17 4 3 0 6 -8 7 -8 0 -6 4 6 9 16 7
17 9 3 9 -9 1 -19 -3 -23 -8z"/>
<path d="M1880 1851 c0 -6 5 -13 10 -16 6 -3 10 1 10 9 0 9 -4 16 -10 16 -5 0
-10 -4 -10 -9z"/>
<path d="M1118 1633 c7 -3 16 -2 19 1 4 3 -2 6 -13 5 -11 0 -14 -3 -6 -6z"/>
<path d="M741 1450 c0 -8 4 -22 9 -30 12 -18 12 -2 0 25 -6 13 -9 15 -9 5z"/>
<path d="M1145 1382 c-19 -4 -44 -29 -45 -45 0 -4 12 0 27 10 28 19 115 22
208 9 69 -11 50 3 -22 15 -70 12 -141 17 -168 11z"/>
<path d="M776 1350 c3 -14 11 -32 16 -40 6 -10 7 -7 2 10 -3 14 -11 32 -16 40
-6 10 -7 7 -2 -10z"/>
<path d="M1426 1351 c-3 -5 1 -11 9 -14 9 -4 12 -1 8 9 -6 16 -10 17 -17 5z"/>
<path d="M1756 1309 c-14 -21 -12 -49 5 -49 16 0 10 -16 -17 -45 -20 -22 -23
-30 -12 -36 10 -7 10 -9 1 -9 -7 0 -12 -3 -11 -7 0 -5 -5 -29 -12 -55 -10 -34
-19 -48 -34 -50 -12 -2 -21 -10 -21 -18 -1 -8 -7 -14 -14 -12 -7 1 -10 -2 -7
-7 4 -5 -10 -27 -29 -48 -19 -21 -35 -42 -35 -47 0 -4 -9 -6 -19 -3 -16 4 -20
-2 -26 -39 -3 -24 -3 -54 0 -67 5 -17 4 -19 -4 -7 -8 12 -11 8 -11 -18 0 -21
4 -31 11 -26 6 3 4 -8 -5 -24 -9 -17 -17 -58 -18 -90 -2 -33 -6 -58 -10 -55
-5 2 -8 -13 -8 -34 0 -27 3 -34 9 -24 8 12 13 12 24 3 12 -10 16 -9 20 3 8 20
67 55 94 55 15 0 27 12 44 46 21 44 93 104 125 104 8 0 13 22 16 61 3 55 1 62
-24 86 -34 33 -34 43 -8 263 11 91 20 167 20 169 0 2 -8 -3 -17 -10 -11 -10
-14 -10 -9 -1 12 20 -2 13 -18 -9z"/>
<path d="M800 1285 c0 -13 24 -55 32 -55 5 0 2 14 -7 30 -14 27 -25 38 -25 25z"/>
<path d="M691 1030 l-2 -185 -42 -21 c-23 -11 -43 -28 -45 -37 -5 -26 24 -20
52 10 14 15 28 24 31 21 3 -3 9 -38 12 -77 4 -45 9 -67 14 -59 5 7 9 21 9 31
0 10 6 25 14 33 13 12 16 11 21 -7 4 -11 9 -18 12 -15 4 3 12 1 20 -5 9 -9 21
-8 43 1 37 15 30 30 -14 30 -20 0 -40 8 -51 20 -10 11 -24 20 -30 20 -14 0
-25 83 -26 214 -1 50 -5 118 -9 151 -5 44 -8 11 -9 -125z"/>
<path d="M1042 1188 c-33 -20 -34 -38 -4 -38 15 0 15 -2 2 -10 -20 -13 -86
-13 -111 0 -10 6 -19 8 -19 5 0 -15 90 -45 117 -39 25 5 30 12 40 52 6 26 10
48 9 49 -1 1 -16 -7 -34 -19z"/>
<path d="M860 1186 c0 -2 8 -10 18 -17 15 -13 16 -12 3 4 -13 16 -21 21 -21
13z"/>
<path d="M785 1150 c13 -70 39 -178 71 -298 26 -96 34 -139 27 -154 -7 -17 -1
-29 38 -69 52 -54 76 -61 83 -26 4 22 26 290 26 315 0 6 -12 12 -27 12 -68 1
-140 71 -199 195 -13 28 -22 39 -19 25z"/>
<path d="M1260 1150 c6 -11 13 -20 16 -20 2 0 0 9 -6 20 -6 11 -13 20 -16 20
-2 0 0 -9 6 -20z"/>
<path d="M1310 1072 c6 -13 14 -21 18 -18 3 4 -2 14 -12 24 -18 16 -18 16 -6
-6z"/>
<path d="M1020 1060 c-8 -5 -24 -11 -35 -15 -16 -5 -17 -8 -5 -15 23 -15 57
-12 64 6 13 33 5 41 -24 24z"/>
<path d="M1825 996 c-44 -19 -61 -42 -45 -61 19 -23 26 -19 53 30 14 25 25 45
24 45 -1 -1 -16 -7 -32 -14z"/>
<path d="M1531 954 c0 -11 3 -14 6 -6 3 7 2 16 -1 19 -3 4 -6 -2 -5 -13z"/>
<path d="M1052 820 c0 -14 2 -19 5 -12 2 6 2 18 0 25 -3 6 -5 1 -5 -13z"/>
<path d="M1840 832 c0 -12 19 -26 26 -19 2 2 -2 10 -11 17 -9 8 -15 8 -15 2z"/>
<path d="M1061 720 c-1 -68 19 -214 31 -225 7 -7 9 3 4 35 -3 25 -11 83 -17
130 -12 104 -17 119 -18 60z"/>
</g>
</svg>
