<?xml version="1.0" standalone="no"?>
<!DOCTYPE svg PUBLIC "-//W3C//DTD SVG 20010904//EN"
 "http://www.w3.org/TR/2001/REC-SVG-20010904/DTD/svg10.dtd">
<svg version="1.0" xmlns="http://www.w3.org/2000/svg"
 width="700.000000pt" height="700.000000pt" viewBox="0 0 700.000000 700.000000"
 preserveAspectRatio="xMidYMid meet">
<metadata>
Created by potrace 1.14, written by Peter Selinger 2001-2017
</metadata>
<g transform="translate(0.000000,700.000000) scale(0.100000,-0.100000)"
fill="#000000" stroke="none">
<path d="M3250 6994 c-19 -2 -78 -9 -130 -15 -782 -86 -1518 -424 -2083 -957
-121 -114 -313 -326 -413 -452 -644 -818 -912 -1837 -745 -2830 192 -1134 902
-2116 1901 -2632 744 -382 1610 -495 2440 -320 1155 248 2143 1034 2670 2122
408 834 501 1788 261 2680 -279 1015 -976 1896 -1901 2405 -530 284 -1138 437
-1740 434 -91 0 -179 -3 -197 -6 -19 -2 -47 -4 -63 -4z m395 -1389 c14 -2 45
-9 70 -14 88 -18 229 -80 320 -138 271 -177 459 -472 502 -789 8 -60 13 -522
15 -1529 l4 -1445 -22 -80 c-69 -260 -219 -483 -423 -629 -162 -117 -374 -191
-570 -200 -52 -2 -102 -2 -111 1 -33 10 -140 74 -195 117 -173 132 -306 338
-361 561 -14 56 -16 236 -18 1524 l-3 1460 22 85 c65 246 208 467 398 616 166
129 382 209 577 218 19 1 44 0 55 -2 11 -2 30 -4 42 -5 11 -1 32 -5 45 -9z"/>
</g>
</svg>
